<svg width="81" height="81" viewBox="0 0 81 81" fill="none" xmlns="http://www.w3.org/2000/svg">
<path d="M5.89453 60.5554C7.6261 63.5431 9.75684 66.3251 12.2635 68.8324C19.8191 76.3873 29.8636 80.5481 40.5479 80.5481C51.2327 80.5481 61.2772 76.3873 68.8322 68.8324C71.3395 66.3251 73.4696 63.5431 75.2012 60.5554C78.6881 54.5392 80.5479 47.6874 80.5479 40.5481C80.5479 33.4088 78.6881 26.557 75.2012 20.5408C73.4696 17.5531 71.3389 14.7705 68.8322 12.2638C61.2772 4.70886 51.2327 0.548096 40.5479 0.548096C29.8636 0.548096 19.8185 4.70886 12.2635 12.2638C9.75623 14.7705 7.62549 17.5531 5.89453 20.5408C2.40759 26.557 0.547852 33.4094 0.547852 40.5481C0.547852 47.6868 2.40759 54.5392 5.89453 60.5554ZM30.3397 40.5481C30.3397 38.6902 30.8408 36.9489 31.7118 35.4462C33.4794 32.3969 36.7765 30.3394 40.5479 30.3394C44.3192 30.3394 47.6163 32.3969 49.3845 35.4462C50.2549 36.9482 50.7566 38.6902 50.7566 40.5481C50.7566 42.406 50.2549 44.1473 49.3845 45.6494C47.6169 48.6993 44.3192 50.7562 40.5479 50.7562C36.7765 50.7562 33.4794 48.6993 31.7112 45.6494C30.8408 44.1473 30.3397 42.406 30.3397 40.5481Z" fill="#FF8398"/>
<path d="M40.5479 65.6519V80.5481C51.2327 80.5481 61.2772 76.3873 68.8322 68.8324C71.3395 66.3251 73.4696 63.5431 75.2012 60.5554L62.2916 53.1018C57.9508 60.6042 49.8392 65.6519 40.5479 65.6519Z" fill="#54E360"/>
<path d="M65.6522 40.5481C65.6522 45.1215 64.4285 49.4092 62.2916 53.1018L75.2012 60.5554C78.6881 54.5392 80.5479 47.6874 80.5479 40.5481C80.5479 33.4088 78.6881 26.557 75.2012 20.5408L62.2916 27.9938C64.4285 31.687 65.6522 35.9747 65.6522 40.5481Z" fill="#008ADF"/>
<path d="M18.8041 53.1018L5.89453 60.5554C7.6261 63.5431 9.75684 66.3251 12.2635 68.8324C19.8191 76.3873 29.8636 80.5481 40.5479 80.5481V65.6519C31.2565 65.6519 23.1449 60.6042 18.8041 53.1018Z" fill="#FFD400"/>
<path d="M62.2916 27.9938L75.2012 20.5408C73.4696 17.5531 71.3389 14.7705 68.8322 12.2638C61.2772 4.70886 51.2327 0.548096 40.5479 0.548096V15.4437C49.8392 15.4437 57.9508 20.4919 62.2916 27.9938Z" fill="#0065A3"/>
<path d="M5.89453 60.5554L18.8041 53.1018C16.6672 49.4092 15.4441 45.1215 15.4441 40.5481C15.4441 35.9747 16.6672 31.687 18.8041 27.9944L5.89453 20.5408C2.40759 26.557 0.547852 33.4094 0.547852 40.5481C0.547852 47.6868 2.40759 54.5392 5.89453 60.5554Z" fill="#FF9100"/>
<path d="M40.5479 15.4437V0.548096C29.8636 0.548096 19.8185 4.70886 12.2635 12.2638C9.75623 14.7705 7.62549 17.5531 5.89453 20.5408L18.8041 27.9944C23.1449 20.4919 31.2565 15.4437 40.5479 15.4437Z" fill="#FF4949"/>
<path d="M50.7566 40.5482C50.7566 42.4061 50.2549 44.1475 49.3845 45.6495L62.2916 53.1019C64.4285 49.4093 65.6522 45.1216 65.6522 40.5482C65.6522 35.9742 64.4285 31.6871 62.2916 27.9939L49.3845 35.4463C50.2549 36.9484 50.7566 38.6903 50.7566 40.5482Z" fill="#0065A3"/>
<path d="M49.3845 35.4463L62.2916 27.9945C57.9508 20.4921 49.8392 15.4438 40.5479 15.4438V30.3395C44.3192 30.3395 47.6163 32.397 49.3845 35.4463Z" fill="#005183"/>
<path d="M40.5479 50.7561V65.6517C49.8392 65.6517 57.9508 60.6041 62.2916 53.1017L49.3845 45.6499C47.6169 48.6992 44.3192 50.7561 40.5479 50.7561Z" fill="#00AB5E"/>
<path d="M40.5479 65.6519V50.7562C36.7765 50.7562 33.4794 48.6993 31.7112 45.6494L18.8041 53.1018C23.1449 60.6042 31.2565 65.6519 40.5479 65.6519Z" fill="#FF9F04"/>
<path d="M30.3397 40.5481C30.3397 38.6902 30.8408 36.9489 31.7118 35.4462L18.8041 27.9944C16.6672 31.687 15.4441 35.9747 15.4441 40.5481C15.4441 45.1215 16.6672 49.4092 18.8041 53.1018L31.7112 45.6494C30.8408 44.1473 30.3397 42.406 30.3397 40.5481Z" fill="#FF4B00"/>
<path d="M40.5479 30.3395V15.4438C31.2565 15.4438 23.1449 20.4921 18.8041 27.9945L31.7118 35.4463C33.4794 32.397 36.7765 30.3395 40.5479 30.3395Z" fill="#E80048"/>
</svg>
